<svg width="400" height="400" viewBox="0 0 400 400" fill="none" xmlns="http://www.w3.org/2000/svg">
    <path d="M200.079 30.3297C176.042 30.3297 156.486 49.8853 156.486 73.9223C156.486 97.9594 176.042 117.515 200.079 117.515C224.116 117.515 243.672 97.9594 243.672 73.9223C243.672 49.8853 224.116 30.3297 200.079 30.3297ZM200.079 105.789C182.507 105.789 168.211 91.4932 168.211 73.9216C168.211 56.3499 182.507 42.0551 200.079 42.0551C217.651 42.0551 231.947 56.3507 231.947 73.9223C231.947 91.494 217.651 105.789 200.079 105.789Z" fill="red"/>
    <path d="M200.079 0C159.318 0 126.157 33.161 126.157 73.9216C126.157 97.4286 145.872 132.451 157.623 151.234C165.355 163.592 173.663 175.353 181.017 184.351C192.822 198.792 197.047 200 200.08 200C203.158 200 207.147 198.791 218.915 184.342C226.285 175.291 234.598 163.536 242.322 151.243C254.153 132.414 274.001 97.3293 274.001 73.9208C274.001 33.161 240.84 0 200.079 0ZM234.193 142.114C219.031 166.724 205.112 183.354 200.009 187.599C194.881 183.484 181.187 167.25 165.814 142.191C148.064 113.257 137.884 88.3735 137.884 73.9216C137.883 39.6264 165.784 11.7254 200.079 11.7254C234.374 11.7254 262.275 39.6264 262.275 73.9216C262.276 88.2906 252.04 113.145 234.193 142.114Z" fill="red"/>
</svg>
